<?xml version="1.0" encoding="UTF-8" standalone="no"?><svg xmlns="http://www.w3.org/2000/svg" xmlns:xlink="http://www.w3.org/1999/xlink" contentScriptType="application/ecmascript" contentStyleType="text/css" height="449px" preserveAspectRatio="none" style="width:377px;height:449px;background:#D3D3D3;" version="1.1" viewBox="0 0 377 449" width="377px" zoomAndPan="magnify"><defs><filter height="300%" id="f5yvsj6nbqjgk" width="300%" x="-1" y="-1"><feGaussianBlur result="blurOut" stdDeviation="2.0"/><feColorMatrix in="blurOut" result="blurOut2" type="matrix" values="0 0 0 0 0 0 0 0 0 0 0 0 0 0 0 0 0 0 .4 0"/><feOffset dx="4.0" dy="4.0" in="blurOut2" result="blurOut3"/><feBlend in="SourceGraphic" in2="blurOut3" mode="normal"/></filter></defs><g><text fill="#000000" font-family="sans-serif" font-size="18" lengthAdjust="spacing" textLength="359" x="2.7585" y="16.708">Continuous Integration Artifact Access</text><text fill="#000000" font-family="sans-serif" font-size="18" lengthAdjust="spacing" textLength="167" x="98.7585" y="37.6611">ci.opensearch.org</text><!--MD5=[95ece868157f8dbdb8b75cc70af2a8f7]
cluster cdn--><path d="M27.4931,199.3878 C31.0289,191.7002 37.3606,191.1227 42.339,197.908 C48.8579,191.4838 55.1896,191.7074 59.765,200.1812 C63.0124,192.4694 70.1802,188.9041 76.5407,196.8447 C82.2409,188.3295 90.7265,190.9674 94.6004,198.8555 C98.7605,190.4595 105.22,190.6006 110.5298,197.6714 C115.6808,190.5269 121.6935,190.0794 127.5481,196.8082 C132.7771,189.4613 137.6786,189.2117 142.8763,196.8402 C147.2711,188.8422 154.6083,188.4369 159.4111,196.4179 C164.1484,188.3545 171.286,190.3137 174.7998,197.6411 C180.8554,187.8185 188.5541,188.6016 193.3111,198.8394 C196.8897,191.7031 204.3117,191.3278 209.0986,197.3947 C215.5844,190.0495 220.308,192.0054 224.4719,199.7588 C228.9881,192.7711 235.8061,191.9702 240.089,200.0015 C244.4073,192.1169 251.872,189.8752 257.3681,198.79 C266.8018,202.6311 269.7766,212.1371 260.4997,218.893 C270.7595,226.0207 269.4701,233.5398 258.9434,239.0637 C270.086,246.0397 268.579,254.9212 258.9909,261.9402 C267.2459,269.2597 266.8182,275.5093 258.362,282.313 C253.839,291.3361 245.8423,291.2613 240.4421,283.2349 C237.141,290.2109 230.229,289.9059 226.0668,284.2119 C221.8727,291.267 213.5494,292.2805 208.9464,284.6898 C204.6425,292.9845 198.378,293.6898 192.5267,286.3108 C187.0522,295.793 181.6793,296.6399 174.5268,287.9752 C169.359,295.1328 164.5494,296.4373 158.9808,288.3849 C154.4559,296.4129 147.0549,296.5628 141.8464,289.1432 C136.6806,297.5548 128.7528,296.6379 125.1344,287.6563 C119.7412,294.5461 112.1507,294.249 108.0252,286.204 C103.0348,293.6055 96.8584,291.4699 93.3278,284.6909 C88.9543,294.2242 80.4491,293.3696 75.3594,285.4273 C71.0854,292.7455 64.3392,292.0241 60.8857,284.6206 C53.761,291.3454 48.4106,290.9297 43.511,282.1302 C38.0756,290.1221 33.3041,288.1648 28.2669,281.71 C15.4573,278.6444 13.8995,271.5041 21.6895,261.6755 C10.6076,258.1652 6,249.4627 14.349,239.5158 C7.8242,231.3896 9.0019,222.5427 20.7825,220.6633 C12.2033,210.0339 15.8483,203.6382 27.4931,199.3878 " fill="#D3D3D3" filter="url(#f5yvsj6nbqjgk)" style="stroke:#000000;stroke-width:1.5;"/><text fill="#000000" font-family="sans-serif" font-size="14" font-weight="bold" lengthAdjust="spacing" textLength="144" x="69.017" y="216.4014">ci.opensearch.org</text><!--MD5=[61622c3eaa3c9c38ad1868de13c03654]
cluster ci1--><path d="M36.2691,353.6744 C37.7536,347.5633 42.845,347.2545 46.908,350.8474 C49.2262,345.4379 53.7284,344.6185 57.5713,349.2239 C60.255,342.778 65.2934,343.312 69.1185,348.0447 C70.8537,342.3239 75.6962,342.5131 79.0458,346.3716 C81.2699,339.6191 85.5228,339.1289 90.4751,343.5912 C95.6968,339.7145 99.2257,340.6955 101.6911,346.7151 C105.5533,341.7483 110.4737,343.8273 112.2212,348.9273 C115.409,343.5026 120.38,345.4381 122.5929,349.9454 C126.6045,345.5506 131.212,344.6866 134.1618,351.0838 C138.2591,346.2115 142.0786,346.5332 144.8243,352.4229 C151.7331,356.2076 151.0402,361.4549 145.7248,366.0475 C152.8159,369.8293 152.3816,375.7044 145.9141,379.6747 C153.6032,383.5647 152.8636,388.493 146.9521,393.4107 C153.998,397.7266 153.4771,402.5248 146.9665,406.8551 C152.4116,411.6799 152.8822,417.8049 145.3522,421.1661 C151.3445,425.1374 150.9198,430.613 144.312,433.5236 C140.9918,439.2221 135.8388,439.3646 131.7805,434.3901 C127.4247,442.5941 120.2905,442.0368 116.3696,433.978 C113.1865,439.3423 107.7909,440.2561 104.1334,434.4999 C100.7665,440.5867 95.0679,441.0225 90.7605,435.5919 C85.8659,442.4075 81.2581,441.0383 77.181,434.745 C73.4359,440.7063 66.1991,441.8916 62.5365,434.6535 C58.8061,440.6725 51.9784,441.3725 48.374,434.515 C44.1275,440.383 38.9307,438.5903 35.9843,433.0972 C27.9293,429.9712 27.8789,425.4118 33.0468,419.4414 C26.2534,416.6052 24.7062,412.7251 29.6916,406.77 C22.8634,404.8888 21.0825,399.4145 26.1117,394.1656 C20.4784,388.9961 21.7058,382.2017 29.8056,380.8385 C24.113,375.1781 26.3146,368.3282 33.5366,365.8915 C29.0646,361.6707 28.874,355.241 36.2691,353.6744 " fill="#D3D3D3" filter="url(#f5yvsj6nbqjgk)" style="stroke:#000000;stroke-width:1.5;"/><text fill="#000000" font-family="sans-serif" font-size="14" font-weight="bold" lengthAdjust="spacing" textLength="109" x="34.517" y="370.4014">CI 1 Artifacts</text><!--MD5=[ae250c825ff670c52b91037f64351567]
cluster ci2--><path d="M204.2691,353.6744 C205.7536,347.5633 210.845,347.2545 214.908,350.8474 C217.2262,345.4379 221.7284,344.6185 225.5713,349.2239 C228.255,342.778 233.2934,343.312 237.1185,348.0447 C238.8537,342.3239 243.6962,342.5131 247.0458,346.3716 C249.2699,339.6191 253.5228,339.1289 258.4751,343.5912 C263.6968,339.7145 267.2257,340.6955 269.6911,346.7151 C273.5533,341.7483 278.4737,343.8273 280.2212,348.9273 C283.409,343.5026 288.38,345.4381 290.5929,349.9454 C294.6045,345.5506 299.212,344.6866 302.1618,351.0838 C306.2591,346.2115 310.0786,346.5332 312.8243,352.4229 C319.7331,356.2076 319.0402,361.4549 313.7248,366.0475 C320.8159,369.8293 320.3816,375.7044 313.9141,379.6747 C321.6032,383.5647 320.8636,388.493 314.9521,393.4107 C321.998,397.7266 321.4771,402.5248 314.9665,406.8551 C320.4116,411.6799 320.8822,417.8049 313.3522,421.1661 C319.3445,425.1374 318.9198,430.613 312.312,433.5236 C308.9918,439.2221 303.8388,439.3646 299.7805,434.3901 C295.4247,442.5941 288.2905,442.0368 284.3696,433.978 C281.1865,439.3423 275.7909,440.2561 272.1334,434.4999 C268.7665,440.5867 263.0679,441.0225 258.7605,435.5919 C253.8659,442.4075 249.2581,441.0383 245.181,434.745 C241.4359,440.7063 234.1991,441.8916 230.5365,434.6535 C226.8061,440.6725 219.9784,441.3725 216.374,434.515 C212.1275,440.383 206.9307,438.5903 203.9843,433.0972 C195.9293,429.9712 195.8789,425.4118 201.0468,419.4414 C194.2534,416.6052 192.7062,412.7251 197.6916,406.77 C190.8634,404.8888 189.0825,399.4145 194.1117,394.1656 C188.4784,388.9961 189.7058,382.2017 197.8056,380.8385 C192.113,375.1781 194.3146,368.3282 201.5366,365.8915 C197.0646,361.6707 196.874,355.241 204.2691,353.6744 " fill="#D3D3D3" filter="url(#f5yvsj6nbqjgk)" style="stroke:#000000;stroke-width:1.5;"/><text fill="#000000" font-family="sans-serif" font-size="14" font-weight="bold" lengthAdjust="spacing" textLength="109" x="202.517" y="370.4014">CI 2 Artifacts</text><!--MD5=[5810323e36cd5122b2a18e1084bd6d07]
entity c1link--><rect fill="#FEFECE" filter="url(#f5yvsj6nbqjgk)" height="46.2969" style="stroke:#A80036;stroke-width:1.5;" width="90" x="33.517" y="225.4063"/><rect fill="#FEFECE" height="10" style="stroke:#A80036;stroke-width:1.5;" width="15" x="103.517" y="230.4063"/><rect fill="#FEFECE" height="2" style="stroke:#A80036;stroke-width:1.5;" width="4" x="101.517" y="232.4063"/><rect fill="#FEFECE" height="2" style="stroke:#A80036;stroke-width:1.5;" width="4" x="101.517" y="236.4063"/><text fill="#000000" font-family="sans-serif" font-size="14" lengthAdjust="spacing" textLength="50" x="48.517" y="258.4014">./CI/1/*</text><!--MD5=[cdb0e27c01e67df109502e81eb6d673f]
entity c2link--><rect fill="#FEFECE" filter="url(#f5yvsj6nbqjgk)" height="46.2969" style="stroke:#A80036;stroke-width:1.5;" width="89" x="159.017" y="225.4063"/><rect fill="#FEFECE" height="10" style="stroke:#A80036;stroke-width:1.5;" width="15" x="228.017" y="230.4063"/><rect fill="#FEFECE" height="2" style="stroke:#A80036;stroke-width:1.5;" width="4" x="226.017" y="232.4063"/><rect fill="#FEFECE" height="2" style="stroke:#A80036;stroke-width:1.5;" width="4" x="226.017" y="236.4063"/><text fill="#000000" font-family="sans-serif" font-size="14" lengthAdjust="spacing" textLength="49" x="174.017" y="258.4014">./CI/2/*</text><ellipse cx="102.7302" cy="401.9299" fill="#FEFECE" filter="url(#f5yvsj6nbqjgk)" rx="24.2132" ry="14.5236" style="stroke:#A80036;stroke-width:1.5;"/><text fill="#000000" font-family="sans-serif" font-size="14" lengthAdjust="spacing" textLength="18" x="93.7302" y="404.7766">S3</text><ellipse cx="266.5586" cy="401.9299" fill="#FEFECE" filter="url(#f5yvsj6nbqjgk)" rx="27.0416" ry="14.5236" style="stroke:#A80036;stroke-width:1.5;"/><text fill="#000000" font-family="sans-serif" font-size="14" lengthAdjust="spacing" textLength="18" x="255.5586" y="404.7766">S3</text><!--MD5=[a3b964f81ba617e6a37a687715f561d9]
entity User 1--><ellipse cx="41.517" cy="55.9063" fill="#FEFECE" filter="url(#f5yvsj6nbqjgk)" rx="8" ry="8" style="stroke:#A80036;stroke-width:1.5;"/><path d="M41.517,63.9063 L41.517,90.9063 M28.517,71.9063 L54.517,71.9063 M41.517,90.9063 L28.517,105.9063 M41.517,90.9063 L54.517,105.9063 " fill="none" filter="url(#f5yvsj6nbqjgk)" style="stroke:#A80036;stroke-width:1.5;"/><text fill="#000000" font-family="sans-serif" font-size="14" lengthAdjust="spacing" textLength="44" x="19.517" y="124.4014">User 1</text><!--MD5=[0f106b1e60a9df277cc00ac14f48f71f]
entity User 2--><ellipse cx="241.517" cy="55.9063" fill="#FEFECE" filter="url(#f5yvsj6nbqjgk)" rx="8" ry="8" style="stroke:#A80036;stroke-width:1.5;"/><path d="M241.517,63.9063 L241.517,90.9063 M228.517,71.9063 L254.517,71.9063 M241.517,90.9063 L228.517,105.9063 M241.517,90.9063 L254.517,105.9063 " fill="none" filter="url(#f5yvsj6nbqjgk)" style="stroke:#A80036;stroke-width:1.5;"/><text fill="#000000" font-family="sans-serif" font-size="14" lengthAdjust="spacing" textLength="43" x="220.017" y="124.4014">User 2</text><!--MD5=[620db7e70a193d650a5fb3d6dd6f9a8d]
link User 1 to c1link--><path d="M35.4698,127.5992 C34.4143,142.4813 34.6784,159.4122 38.517,174.4063 C42.7354,190.8832 51.5298,207.6402 59.8008,220.9363 " fill="none" id="User 1-to-c1link" style="stroke:#A80036;stroke-width:1.0;"/><polygon fill="#A80036" points="62.5783,225.3073,61.1277,215.5658,59.8968,221.0871,54.3755,219.8562,62.5783,225.3073" style="stroke:#A80036;stroke-width:1.0;"/><text fill="#000000" font-family="sans-serif" font-size="13" lengthAdjust="spacing" textLength="158" x="39.517" y="170.4731">GET .../CI/2123/logs/build</text><!--MD5=[e1646231a078af09a3d5eed9a3b26154]
link c1link to ci1--><path d="M73.4277,271.4353 C71.0388,281.7758 68.0143,294.8678 64.8116,308.7309 C63.2102,315.6625 61.5643,322.7868 59.9311,329.8563 C59.1145,333.3911 58.3011,336.9121 57.498,340.3886 C57.2972,341.2577 57.097,342.124 56.8977,342.987 C56.798,343.4185 56.6985,343.8492 56.5992,344.279 " fill="none" id="c1link-to-ci1" style="stroke:#A80036;stroke-width:1.0;"/><polygon fill="#A80036" points="56.5992,344.279,62.5224,336.4104,57.7246,339.4074,54.7277,334.6096,56.5992,344.279" style="stroke:#A80036;stroke-width:1.0;"/><text fill="#000000" font-family="sans-serif" font-size="13" lengthAdjust="spacing" textLength="118" x="66.517" y="316.4731">Lookup ./logs/build</text><!--MD5=[54f146c643a6e55e7f229ad2250f3ca0]
link User 2 to c2link--><path d="M232.026,127.7432 C225.143,156.6363 216.016,194.9453 209.964,220.3463 " fill="none" id="User 2-to-c2link" style="stroke:#A80036;stroke-width:1.0;"/><polygon fill="#A80036" points="208.796,225.2483,214.7751,217.422,209.9562,220.3847,206.9934,215.5657,208.796,225.2483" style="stroke:#A80036;stroke-width:1.0;"/><text fill="#000000" font-family="sans-serif" font-size="13" lengthAdjust="spacing" textLength="144" x="225.517" y="170.4731">GET .../CI/8781/artifact</text><!--MD5=[938264b17eaa5a7b369fae203b468837]
link c2link to ci2--><path d="M203.517,271.4353 C203.517,281.7758 203.517,294.8678 203.517,308.7309 C203.517,315.6625 203.517,322.7868 203.517,329.8563 C203.517,333.3911 203.517,336.9121 203.517,340.3886 C203.517,341.2577 203.517,342.124 203.517,342.987 C203.517,343.4185 203.517,343.8492 203.517,344.279 " fill="none" id="c2link-to-ci2" style="stroke:#A80036;stroke-width:1.0;"/><polygon fill="#A80036" points="203.517,344.279,207.517,335.279,203.517,339.279,199.517,335.279,203.517,344.279" style="stroke:#A80036;stroke-width:1.0;"/><text fill="#000000" font-family="sans-serif" font-size="13" lengthAdjust="spacing" textLength="104" x="204.517" y="316.4731">Lookup ./artifact</text><!--MD5=[baaae281be40b2de09203e41e51f96ab]
@startuml
skinparam backgroundColor lightgrey
title
Continuous Integration Artifact Access
ci.opensearch.org
endtitle

cloud "ci.opensearch.org" as cdn {
  [./CI/1/*] as c1link
  [./CI/2/*] as c2link
}

cloud "CI 1 Artifacts" as ci1 {
	(S3)
}
cloud "CI 2 Artifacts" as ci2 {
	(S3 )
}


:User 1: -down-> c1link: GET .../CI/2123/logs/build
c1link -down-> ci1: Lookup ./logs/build

:User 2: -down-> c2link: GET .../CI/8781/artifact
c2link -down-> ci2: Lookup ./artifact
@enduml

PlantUML version 1.2021.11beta6(Unknown compile time)
(GPL source distribution)
Java Runtime: Java(TM) SE Runtime Environment
JVM: Java HotSpot(TM) 64-Bit Server VM
Default Encoding: UTF-8
Language: en
Country: US
--></g></svg>