<?xml version="1.0" encoding="UTF-8" standalone="no"?><svg xmlns="http://www.w3.org/2000/svg" xmlns:xlink="http://www.w3.org/1999/xlink" contentScriptType="application/ecmascript" contentStyleType="text/css" height="565px" preserveAspectRatio="none" style="width:933px;height:565px;background:#D3D3D3;" version="1.1" viewBox="0 0 933 565" width="933px" zoomAndPan="magnify"><defs><filter height="300%" id="fk9wte9nc1jvc" width="300%" x="-1" y="-1"><feGaussianBlur result="blurOut" stdDeviation="2.0"/><feColorMatrix in="blurOut" result="blurOut2" type="matrix" values="0 0 0 0 0 0 0 0 0 0 0 0 0 0 0 0 0 0 .4 0"/><feOffset dx="4.0" dy="4.0" in="blurOut2" result="blurOut3"/><feBlend in="SourceGraphic" in2="blurOut3" mode="normal"/></filter></defs><g><text fill="#000000" font-family="sans-serif" font-size="18" lengthAdjust="spacing" textLength="196" x="362" y="16.708">Build Artifact System</text><!--MD5=[addf083e429417be7ad7bace6a60d70a]
cluster S3--><path d="M215.3538,426.51 C226.7053,412.5195 242.1065,412.3838 249.4975,430.6962 C260.1978,408.9677 278.2342,411.6103 289.5919,430.0399 C297.2021,416.5598 313.1924,412.2939 322.2352,428.4626 C330.6967,408.9622 345.9831,409.8891 356.6797,426.32 C364.8258,407.0395 380.748,406.0974 394.4001,420.0752 C403.4714,405.2834 416.3854,404.3267 425.455,420.0768 C438.6579,401.1054 450.7579,399.0567 464.5303,419.5124 C475.7413,406.217 486.1258,404.7241 497.1215,419.7601 C511.1609,406.5977 523.4151,407.2426 531.8205,425.9032 C540.2169,406.063 557.9955,404.408 568.464,423.9766 C580.7446,408.5456 593.8175,409.7854 604.1618,426.1505 C615.1314,408.5412 632.3733,410.3518 640.3288,429.145 C646.9642,412.4659 663.1383,412.4778 672.9457,425.6829 C687.902,406.7013 707.0943,413.4355 715,433.3131 C718.7997,433.9588 719.4524,436.7778 717.1047,439.511 C739.734,448.1167 737.715,464.4003 722.4346,478.2251 C741.4071,498.3257 733.4986,517.4497 708,523.3131 C709.872,522.2153 710.9879,523.3536 711.0751,525.1861 C704.4668,545.36 685.9183,544.8734 674.3107,530.5074 C664.3391,549.0528 651.3647,545.2531 640.2128,531.7637 C628.2959,548.9484 613.0247,547.4152 603.0948,529.6532 C594.8099,550.5457 579.4894,551.1669 567.075,533.512 C558.069,548.9906 549.191,550.5502 537.5381,536.1265 C523.7475,552.6433 512.467,554.161 500.8257,533.9766 C493.2877,551.762 474.3663,558.0735 461.3723,539.9755 C451.3699,556.4428 435.8895,551.2039 429.5005,536.304 C420.0413,554.7539 405.3147,554.6299 395.783,536.3706 C381.5225,550.3475 365.6116,550.5645 357.0344,529.9958 C348.8467,549.7076 334.4011,551.4835 322.2602,533.6581 C308.0214,548.4612 296.1283,546.5681 286.2915,528.7973 C276.5196,546.4009 266.5457,547.7005 253.9573,531.4906 C231.1136,551.8193 213.1098,545.7002 206,516.3131 C210.0986,516.8237 210.521,519.405 208.5073,522.4236 C188.7604,511.0352 186.108,495.4014 203.5467,479.696 C179.0752,459.5399 188.1376,437.7329 213,426.3131 C213.6809,425.3715 214.8387,425.4696 215.3538,426.51 " fill="#D3D3D3" filter="url(#fk9wte9nc1jvc)" style="stroke:#000000;stroke-width:1.5;"/><text fill="#000000" font-family="sans-serif" font-size="14" font-weight="bold" lengthAdjust="spacing" textLength="20" x="450.5" y="444.3082">S3</text><!--MD5=[f5e261d42dab2607815951219eaa4ec7]
cluster n--><rect fill="#D3D3D3" filter="url(#fk9wte9nc1jvc)" height="160.86" style="stroke:#000000;stroke-width:1.5;" width="733" x="7" y="177.4531"/><text fill="#000000" font-family="sans-serif" font-size="14" font-weight="bold" lengthAdjust="spacing" textLength="60" x="343.5" y="192.4482">CI Node</text><!--MD5=[51bb73b52011b599a896769646a6404a]
entity builds--><rect fill="#FEFECE" filter="url(#fk9wte9nc1jvc)" height="46.2969" style="stroke:#A80036;stroke-width:1.5;" width="97" x="222.5" y="461.3131"/><rect fill="#FEFECE" height="10" style="stroke:#A80036;stroke-width:1.5;" width="15" x="299.5" y="466.3131"/><rect fill="#FEFECE" height="2" style="stroke:#A80036;stroke-width:1.5;" width="4" x="297.5" y="468.3131"/><rect fill="#FEFECE" height="2" style="stroke:#A80036;stroke-width:1.5;" width="4" x="297.5" y="472.3131"/><text fill="#000000" font-family="sans-serif" font-size="14" lengthAdjust="spacing" textLength="57" x="237.5" y="494.3082">./build/*</text><!--MD5=[023ec99b21cf781dce3f409c71822d7a]
entity bundles--><rect fill="#FEFECE" filter="url(#fk9wte9nc1jvc)" height="46.2969" style="stroke:#A80036;stroke-width:1.5;" width="118" x="355" y="461.3131"/><rect fill="#FEFECE" height="10" style="stroke:#A80036;stroke-width:1.5;" width="15" x="453" y="466.3131"/><rect fill="#FEFECE" height="2" style="stroke:#A80036;stroke-width:1.5;" width="4" x="451" y="468.3131"/><rect fill="#FEFECE" height="2" style="stroke:#A80036;stroke-width:1.5;" width="4" x="451" y="472.3131"/><text fill="#000000" font-family="sans-serif" font-size="14" lengthAdjust="spacing" textLength="78" x="370" y="494.3082">./bundles/*</text><!--MD5=[6b6aa52bae2e86a2b9fe7e5e53b309bd]
entity tests--><rect fill="#FEFECE" filter="url(#fk9wte9nc1jvc)" height="46.2969" style="stroke:#A80036;stroke-width:1.5;" width="172" x="508" y="461.3131"/><rect fill="#FEFECE" height="10" style="stroke:#A80036;stroke-width:1.5;" width="15" x="660" y="466.3131"/><rect fill="#FEFECE" height="2" style="stroke:#A80036;stroke-width:1.5;" width="4" x="658" y="468.3131"/><rect fill="#FEFECE" height="2" style="stroke:#A80036;stroke-width:1.5;" width="4" x="658" y="472.3131"/><text fill="#000000" font-family="sans-serif" font-size="14" lengthAdjust="spacing" textLength="132" x="523" y="494.3082">./bundles/*/tests/*</text><ellipse cx="95.0594" cy="298.525" fill="#FEFECE" filter="url(#fk9wte9nc1jvc)" rx="64.0594" ry="15.2119" style="stroke:#A80036;stroke-width:1.5;"/><text fill="#000000" font-family="sans-serif" font-size="14" lengthAdjust="spacing" textLength="76" x="54.0594" y="302.2726">Node Build</text><ellipse cx="364.964" cy="298.5059" fill="#FEFECE" filter="url(#fk9wte9nc1jvc)" rx="68.964" ry="16.1928" style="stroke:#A80036;stroke-width:1.5;"/><text fill="#000000" font-family="sans-serif" font-size="14" lengthAdjust="spacing" textLength="90" x="316.964" y="302.2535">Node Bundle</text><ellipse cx="653.0625" cy="298.3256" fill="#FEFECE" filter="url(#fk9wte9nc1jvc)" rx="63.0625" ry="15.0125" style="stroke:#A80036;stroke-width:1.5;"/><text fill="#000000" font-family="sans-serif" font-size="14" lengthAdjust="spacing" textLength="73" x="613.5625" y="302.0732">Node Test</text><!--MD5=[8fb4f905147ca31c25b1e567ee08a5b2]
entity cdn--><path d="M622.8912,51.0668 C627.1722,45.0031 631.7216,45.5154 635.524,51.5659 C639.5011,45.6165 644.8331,44.38 649.5845,50.6769 C652.3816,45.0399 658.6041,44.3623 662.436,49.4352 C666.9321,43.6399 671.524,43.6435 675.1027,50.3637 C677.6878,43.6377 682.178,44.4605 686.4237,48.6397 C691.2756,41.2284 696.8432,41.5115 700.9714,49.3308 C703.9741,43.7688 709.7309,43.3562 712.5555,49.5069 C716.7596,44.1653 722.3982,44.4515 725.824,50.4199 C730.5432,45.077 734.9362,45.6224 737.6317,52.3927 C741.2692,47.16 746.3745,46.2709 750.3209,52.0363 C759.0584,54.3055 762.0582,61.2169 755.0402,68.1115 C760.0252,74.8121 758.148,79.2206 750.9452,82.4374 C746.8169,88.4829 742.6716,89.0665 738.0603,82.9491 C735.2399,88.2037 729.0918,88.7099 725.5482,83.8433 C722.356,90.1728 717.3093,91.3393 712.2407,85.9796 C709.8001,91.5473 705.7606,93.7016 700.9684,88.4237 C697.0842,94.1984 690.9901,94.006 687.2378,88.2665 C683.5652,95.8633 677.2197,94.0809 673.4022,88.4177 C668.999,93.0736 665.4943,93.3443 662.4835,87.0316 C656.8453,93.0448 652.2295,93.9956 648.0674,85.559 C642.9093,92.0726 637.8459,91.2085 635.0013,83.4421 C630.3309,89.031 627.0148,86.9594 623.8327,81.8835 C614.7046,81.0951 612.2262,74.3403 617.8554,67.4433 C611.8412,60.869 614.1584,53.1064 622.8912,51.0668 " fill="#FEFECE" filter="url(#fk9wte9nc1jvc)" style="stroke:#000000;stroke-width:1.5;"/><text fill="#000000" font-family="sans-serif" font-size="14" lengthAdjust="spacing" textLength="114" x="629" y="70.9482">CloudFront CDN</text><!--MD5=[fee662a292a0353a69bd162820bae93b]
entity User--><ellipse cx="353" cy="34.9531" fill="#FEFECE" filter="url(#fk9wte9nc1jvc)" rx="8" ry="8" style="stroke:#A80036;stroke-width:1.5;"/><path d="M353,42.9531 L353,69.9531 M340,50.9531 L366,50.9531 M353,69.9531 L340,84.9531 M353,69.9531 L366,84.9531 " fill="none" filter="url(#fk9wte9nc1jvc)" style="stroke:#A80036;stroke-width:1.5;"/><text fill="#000000" font-family="sans-serif" font-size="14" lengthAdjust="spacing" textLength="31" x="337.5" y="103.4482">User</text><!--MD5=[e4fbdddf767af04743181fd38e62cca5]
link User to n--><path d="M337.494,68.3231 C304.303,72.1881 226.74,86.4111 194,136.4531 C190.0265,142.5266 188.1536,149.6093 187.597,156.856 C187.3186,160.4793 187.3693,164.1437 187.651,167.7435 C187.7919,169.5434 187.9905,171.3271 188.2346,173.0815 C188.3567,173.9587 188.4901,174.8285 188.6333,175.6894 C188.705,176.1198 188.7791,176.548 188.8554,176.9738 C188.8745,177.0802 188.8937,177.1865 188.9131,177.2926 " fill="none" id="User-to-n" style="stroke:#A80036;stroke-width:1.0;"/><polygon fill="#A80036" points="188.9131,177.2926,191.232,167.7206,188.0153,172.3739,183.362,169.1571,188.9131,177.2926" style="stroke:#A80036;stroke-width:1.0;"/><text fill="#000000" font-family="sans-serif" font-size="13" lengthAdjust="spacing" textLength="114" x="195" y="149.52">[1] Create update</text><!--MD5=[f1afec435d5d2f66f3b6f0cb3ff1287b]
reverse link User to n--><path d="M340.078,111.8271 C334.068,126.5481 325.61,142.0401 314,153.4531 C309.0324,158.3365 303.5158,162.7806 297.6606,166.8195 C294.733,168.839 291.7208,170.7572 288.6501,172.5784 C287.1148,173.489 285.5649,174.3753 284.0037,175.2379 C283.2231,175.6693 282.4397,176.0946 281.6538,176.5142 C281.2609,176.7239 280.8674,176.9322 280.4733,177.139 C280.2762,177.2425 280.0791,177.3455 279.8817,177.4482 " fill="none" id="User-backto-n" style="stroke:#A80036;stroke-width:1.0;"/><polygon fill="#A80036" points="342.023,106.8711,335.0127,113.7889,340.1971,111.5258,342.4602,116.7103,342.023,106.8711" style="stroke:#A80036;stroke-width:1.0;"/><text fill="#000000" font-family="sans-serif" font-size="13" lengthAdjust="spacing" textLength="132" x="328" y="149.52">[12] Send noficiation</text><!--MD5=[11f8bed24bb0b6c54884c68be5f2eabe]
link n to Node Build--><path d="M196.926,205.3801 C194.698,207.3901 142.624,254.3581 113.793,280.3621 " fill="none" id="n-to-Node Build" style="stroke:#A80036;stroke-width:1.0;"/><polygon fill="#A80036" points="110.057,283.7321,119.4193,280.6749,113.77,280.3834,114.0614,274.7341,110.057,283.7321" style="stroke:#A80036;stroke-width:1.0;"/><text fill="#000000" font-family="sans-serif" font-size="13" lengthAdjust="spacing" textLength="101" x="163" y="248.38">[3] Trigger Build</text><!--MD5=[c32bceddb5a2e7bf44df104ffef01a68]
link Node Build to builds--><path d="M93.012,313.5931 C91.023,333.4981 90.301,369.8841 107,394.3131 C132.806,432.0651 180.018,455.2441 217.182,468.4429 " fill="none" id="Node Build-to-builds" style="stroke:#A80036;stroke-width:1.0;"/><polygon fill="#A80036" points="222.124,470.1608,214.936,463.4279,217.4011,468.5193,212.3096,470.9845,222.124,470.1608" style="stroke:#A80036;stroke-width:1.0;"/><text fill="#000000" font-family="sans-serif" font-size="13" lengthAdjust="spacing" textLength="117" x="108" y="382.88">[4] Build and store</text><!--MD5=[5e2c0e5beabe471b33f9a6a5a1abe26c]
link Node Build to Node Bundle--><path d="M159.329,298.3131 C198.818,298.3131 249.542,298.3131 290.735,298.3131 " fill="none" id="Node Build-to-Node Bundle" style="stroke:#A80036;stroke-width:1.0;"/><polygon fill="#A80036" points="295.967,298.3131,286.967,294.3131,290.967,298.3131,286.967,302.3131,295.967,298.3131" style="stroke:#A80036;stroke-width:1.0;"/><text fill="#000000" font-family="sans-serif" font-size="13" lengthAdjust="spacing" textLength="100" x="177.5" y="291.38">[5] Start Bundle</text><!--MD5=[4c08f3b4435e02927177f1977558286f]
link Node Bundle to builds--><path d="M318.319,310.2161 C290.949,319.2671 258.581,335.1901 242,362.3131 C224.18,391.4621 239.447,430.7771 253.72,456.572 " fill="none" id="Node Bundle-to-builds" style="stroke:#A80036;stroke-width:1.0;"/><polygon fill="#A80036" points="256.365,461.2256,255.395,451.4247,253.8942,456.8788,248.44,455.378,256.365,461.2256" style="stroke:#A80036;stroke-width:1.0;"/><text fill="#000000" font-family="sans-serif" font-size="13" lengthAdjust="spacing" textLength="120" x="243" y="382.88">[6] Download build</text><!--MD5=[bc907d84733eed21cea37c9942b45602]
link Node Bundle to bundles--><path d="M365.901,314.3491 C367.298,333.2711 370.634,366.6441 378,394.3131 C383.722,415.8081 393.262,439.0781 401.083,456.4318 " fill="none" id="Node Bundle-to-bundles" style="stroke:#A80036;stroke-width:1.0;"/><polygon fill="#A80036" points="403.239,461.1631,403.1468,451.3147,401.1656,456.6133,395.8671,454.6321,403.239,461.1631" style="stroke:#A80036;stroke-width:1.0;"/><text fill="#000000" font-family="sans-serif" font-size="13" lengthAdjust="spacing" textLength="130" x="379" y="382.88">[7] Bundle and store</text><!--MD5=[db5acef1c0e0c7b8d30a0b8afb65b151]
link Node Bundle to Node Test--><path d="M434.35,298.3131 C479.865,298.3131 539.134,298.3131 584.481,298.3131 " fill="none" id="Node Bundle-to-Node Test" style="stroke:#A80036;stroke-width:1.0;"/><polygon fill="#A80036" points="589.661,298.3131,580.661,294.3131,584.661,298.3131,580.661,302.3131,589.661,298.3131" style="stroke:#A80036;stroke-width:1.0;"/><text fill="#000000" font-family="sans-serif" font-size="13" lengthAdjust="spacing" textLength="119" x="452.5" y="291.38">[8] Start validation</text><!--MD5=[10e8a1fe10840c3d2edc042400c1b34b]
link Node Test to bundles--><path d="M627.199,312.1261 C604.774,323.8061 571.91,342.2551 546,362.3131 C530.095,374.6251 531.109,383.7391 514,394.3131 C504.436,400.2241 499.469,396.2501 490,402.3131 C467.543,416.6911 447.172,439.1701 433.186,456.803 " fill="none" id="Node Test-to-bundles" style="stroke:#A80036;stroke-width:1.0;"/><polygon fill="#A80036" points="429.77,461.1736,438.4634,456.545,432.8487,457.2339,432.1598,451.6191,429.77,461.1736" style="stroke:#A80036;stroke-width:1.0;"/><text fill="#000000" font-family="sans-serif" font-size="13" lengthAdjust="spacing" textLength="133" x="547" y="382.88">[9] Download bundle</text><!--MD5=[a4599f2cccef9374025faea5bc2d175e]
link Node Test to tests--><path d="M665.218,313.3211 C679.945,331.9981 701.275,365.9931 689,394.3131 C685.445,402.5151 649.996,434.5751 623.436,457.8688 " fill="none" id="Node Test-to-tests" style="stroke:#A80036;stroke-width:1.0;"/><polygon fill="#A80036" points="619.586,461.2381,628.9928,458.3207,623.3485,457.9451,623.724,452.3007,619.586,461.2381" style="stroke:#A80036;stroke-width:1.0;"/><text fill="#000000" font-family="sans-serif" font-size="13" lengthAdjust="spacing" textLength="105" x="694" y="375.38">[10] Run tests &amp;</text><text fill="#000000" font-family="sans-serif" font-size="13" lengthAdjust="spacing" textLength="81" x="706" y="390.5128">Store results</text><!--MD5=[bc63373a1516f4b444c37c6e996b1a2c]
link User to cdn--><path d="M368.615,65.9531 C410.765,65.9531 529.041,65.9531 608.688,65.9531 " fill="none" id="User-to-cdn" style="stroke:#A80036;stroke-width:1.0;"/><polygon fill="#A80036" points="613.877,65.9531,604.877,61.9531,608.877,65.9531,604.877,69.9531,613.877,65.9531" style="stroke:#A80036;stroke-width:1.0;"/><text fill="#000000" font-family="sans-serif" font-size="13" lengthAdjust="spacing" textLength="123" x="429.75" y="59.02">[13] Inspect results</text><!--MD5=[55a12676dffe181b209b62f52bf8d3b4]
link cdn to S3--><path d="M703.253,89.1601 C716.942,107.6521 735.75,135.1221 748,161.4531 C787.301,245.9271 794.525,270.1241 808,362.3131 C810.057,376.3861 813.587,381.2341 808,394.3131 C796.939,420.2081 774.237,442.1729 754.0326,457.8031 C743.9304,465.6183 734.4527,471.8498 727.3666,476.1972 C726.4809,476.7406 725.6325,477.2546 724.8249,477.7386 C724.4211,477.9806 724.0275,478.215 723.6446,478.4419 C723.4531,478.5554 723.2643,478.6669 723.0782,478.7766 " fill="none" id="cdn-to-S3" style="stroke:#A80036;stroke-width:1.0;"/><polygon fill="#A80036" points="723.0782,478.7766,732.8629,477.6542,727.3861,476.2384,728.8018,470.7616,723.0782,478.7766" style="stroke:#A80036;stroke-width:1.0;"/><text fill="#000000" font-family="sans-serif" font-size="13" lengthAdjust="spacing" textLength="139" x="786" y="248.38">[14] Retrieve from S3</text><!--MD5=[9a1dedc90ff572437a16cd0d70e38a77]
@startuml
skinparam backgroundColor lightgrey
title
Build Artifact System
endtitle

cloud S3 {
  [./build/*] as builds
  [./bundles/*] as bundles
  [./bundles/*/tests/*] as tests
}

cloud "CloudFront CDN" as cdn

rectangle "CI Node" as n {
  (Node Build)
  (Node Bundle)
  (Node Test)
}

:User: -down-> n: [1] Create update
n -down-> (Node Build): [3] Trigger Build
(Node Build) -down-> builds: [4] Build and store
(Node Build) -> (Node Bundle): [5] Start Bundle
(Node Bundle) -> builds: [6] Download build
(Node Bundle) -> bundles: [7] Bundle and store
(Node Bundle) -> (Node Test): [8] Start validation
(Node Test) -> bundles: [9] Download bundle
(Node Test) -> tests: [10] Run tests &\nStore results
n -up-> :User:: [12] Send noficiation
:User: -> cdn: [13] Inspect results
cdn -> S3: [14] Retrieve from S3
@enduml

PlantUML version 1.2021.11beta6(Unknown compile time)
(GPL source distribution)
Java Runtime: Java(TM) SE Runtime Environment
JVM: Java HotSpot(TM) 64-Bit Server VM
Default Encoding: UTF-8
Language: en
Country: US
--></g></svg>